<svg width="144" height="113" viewBox="0 0 144 113" fill="none" xmlns="http://www.w3.org/2000/svg">
<path d="M52 56.5C60.8375 56.5 68 50.1769 68 42.375C68 34.5731 60.8375 28.25 52 28.25C43.1625 28.25 36 34.5731 36 42.375C36 50.1658 43.175 56.5 52 56.5ZM116 51.2031H92C88.6875 51.2031 86 53.5757 86 56.5C86 59.4243 88.6875 61.7969 92 61.7969H116C119.312 61.7969 122 59.4243 122 56.5C122 53.5757 119.325 51.2031 116 51.2031ZM60 63.5625H44C32.95 63.5625 24 71.4637 24 81.2188C24 83.1609 25.8 84.75 28 84.75H76C78.209 84.75 80 83.1689 80 81.2188C80 71.4637 71.05 63.5625 60 63.5625ZM116 33.5469H92C88.6875 33.5469 86 35.9194 86 38.8438C86 41.7681 88.6875 44.1406 92 44.1406H116C119.312 44.1406 122 41.7681 122 38.8438C122 35.9194 119.325 33.5469 116 33.5469ZM128 7.0625H16C7.1625 7.0625 0 13.3856 0 21.1875V91.8125C0 99.6144 7.1625 105.938 16 105.938H128C136.837 105.938 144 99.6144 144 91.8125V21.1875C144 13.3856 136.825 7.0625 128 7.0625ZM132 91.8125C132 93.7595 130.205 95.3438 128 95.3438H16C13.7945 95.3438 12 93.7595 12 91.8125V21.1875C12 19.2405 13.7945 17.6562 16 17.6562H128C130.205 17.6562 132 19.2405 132 21.1875V91.8125Z" fill="black"/>
</svg>
